<svg xmlns="http://www.w3.org/2000/svg" version="1.1" xmlns:xlink="http://www.w3.org/1999/xlink" xmlns:svgjs="http://svgjs.dev/svgjs" viewBox="0 0 1920 1080" class="overflow-hidden rounded-md drop-shadow-lg transition duration-300" style="overflow: hidden; height: 85vh;"><rect width="1920" height="1080" fill="#dddddd"/><g clip-path="url(&quot;#SvgjsClipPath1062&quot;)"><g transform="matrix(0.7392057511395203,0.8809511095868247,-0.8809511095868247,0.7392057511395203,718.3223965739069,-678.6925873822606)"><path d="M0,-1080C-9.906029269581529,-1003.4988316835409,-58.15900736097299,-776.0426878133711,-59.43617561748917,-620.9929901012449C-60.713343874005346,-465.9432923891187,-14.424346425185846,-309.85890085107656,-7.663009539097061,-149.70181372724295C-0.9016726530082764,10.455273396590655,-30.043884852603348,182.49619955137527,-18.868154300956462,339.9495326417567C-7.692423749309578,497.40286573213814,49.91427230249662,651.4561264177562,59.39137377078424,795.0181848150457C68.86847523907186,938.5802432123353,53.87172874988653,1060.9994278540062,37.99445450876925,1201.3218830254941C22.117180267651975,1341.644338196982,-29.539862591124546,1477.173229681555,-35.87227167591942,1636.9529158439727C-42.2046807607143,1796.7326020063904,-5.9787119459865705,2072.8254859739955,0,2160L 1920 2160 L 1920 -1080 Z" fill="url(&quot;#SvgjsLinearGradient1058&quot;)"/><path d="M480,-1080C474.14298400370177,-1005.2240048654667,439.4501444074831,-777.7473874913194,444.85790402221073,-631.3440291927998C450.26566363693837,-484.9406708942802,510.3992704359945,-361.20643777084194,512.4465576883658,-201.57985020888225C514.4938449407372,-41.953262646922525,456.5256845924151,154.2505498643859,457.1416275364387,326.4154961789585C457.75757048046233,498.5804424935311,512.2524396439534,682.1387001600624,516.1422153525076,831.4098276785534C520.0319910610618,980.6809551970443,485.0546169219365,1072.0822316424167,480.4802817877642,1222.042261289904C475.90594665359197,1372.0022909373913,488.7762515121012,1574.8437157784615,488.6962045474739,1731.1700055634774C488.61615758284654,1887.4962953484933,481.449367424579,2088.5283342605794,480,2160L 1920 2160 L 1920 -1080 Z" fill="url(&quot;#SvgjsLinearGradient1059&quot;)"/><path d="M960,-1080C969.7972449291476,-980.2368655262137,1022.3058167369619,-706.3248126281645,1018.7834695748854,-481.42119315728223C1015.261122412809,-256.51757368639994,952.9689405870658,40.453993149212124,938.865917027541,269.42171682529374C924.762893468016,498.38944050137536,935.78653138368,689.2549379370291,934.165328217736,892.3851488992075C932.5441250517921,1095.5153598613858,924.8329194015,1276.933840748232,929.1386980318773,1488.2029825983639C933.4444766622546,1699.4721244484958,954.8564496719796,2048.0338304330608,960,2160L 1920 2160 L 1920 -1080 Z" fill="url(&quot;#SvgjsLinearGradient1060&quot;)"/><path d="M1440,-1080C1450.6179420704725,-954.7261939183966,1503.5649561457003,-594.5947628052791,1503.7076524228353,-328.35716351037956C1503.8503486999703,-62.119564215480125,1460.0947740392485,238.94845775974107,1440.8561776628105,517.4255957693966C1421.6175812863726,795.9027337790521,1388.4187704413434,1068.7432638424532,1388.2760741642082,1342.5056645475538C1388.133377887073,1616.2680652526544,1431.3793456940348,2023.750944091259,1440,2160L 1920 2160 L 1920 -1080 Z" fill="url(&quot;#SvgjsLinearGradient1061&quot;)"/></g></g><defs><linearGradient x1="0.1" y1="0" x2="0" y2="1" id="SvgjsLinearGradient1058"><stop stop-color="#dddddd" offset="0"/><stop stop-color="#dddddd" offset="0"/></linearGradient><linearGradient x1="0.1" y1="0" x2="0" y2="1" id="SvgjsLinearGradient1059"><stop stop-color="#e6e6e6" offset="0"/><stop stop-color="#e6e6e6" offset="0.25"/></linearGradient><linearGradient x1="0.1" y1="0" x2="0" y2="1" id="SvgjsLinearGradient1060"><stop stop-color="#eeeeee" offset="0"/><stop stop-color="#eeeeee" offset="0.5"/></linearGradient><linearGradient x1="0.1" y1="0" x2="0" y2="1" id="SvgjsLinearGradient1061"><stop stop-color="#f6f6f6" offset="0"/><stop stop-color="#f6f6f6" offset="0.75"/></linearGradient><clipPath id="SvgjsClipPath1062"><rect width="1920" height="1080"/></clipPath></defs></svg>